<mxfile host="app.diagrams.net" modified="2023-08-17T10:53:23.722Z" agent="Mozilla/5.0 (Windows NT 10.0; Win64; x64; rv:109.0) Gecko/20100101 Firefox/116.0" version="21.6.6" etag="F8FIyTPOufTJVU56rHpx" type="github">
  <diagram name="Page-1" id="ogftG3fuXbFlThWZHwc2">
    <mxGraphModel>
      <root>
        <mxCell id="0" />
        <mxCell id="1" parent="0" />
      </root>
    </mxGraphModel>
  </diagram>
</mxfile>
